<svg width="256" height="114" viewBox="0 0 256 114" fill="none" xmlns="http://www.w3.org/2000/svg">
<path d="M0.6875 112V99.625H11.625V112H0.6875Z" fill="#81171B"/>
<path d="M32.25 112V2H45.1875V49.0625H62.8125V2H75.75V112H62.8125V59.625H45.1875V112H32.25ZM114.688 113.312C109.271 113.312 104.958 112.25 101.75 110.125C98.5833 107.958 96.3125 104.688 94.9375 100.312C93.5625 95.9375 92.875 90.4167 92.875 83.75V2H105.812V83.4375C105.812 87.3958 105.958 90.7917 106.25 93.625C106.542 96.4583 107.312 98.625 108.562 100.125C109.812 101.625 111.854 102.375 114.688 102.375C117.562 102.375 119.604 101.625 120.812 100.125C122.021 98.625 122.75 96.4792 123 93.6875C123.292 90.8542 123.438 87.4583 123.438 83.5V2H136.312V83.75C136.312 90.4167 135.646 95.9375 134.312 100.312C132.979 104.688 130.729 107.958 127.562 110.125C124.438 112.25 120.146 113.312 114.688 113.312ZM173.75 113.312C168.417 113.312 164.167 112.021 161 109.438C157.833 106.812 155.562 102.979 154.188 97.9375C152.812 92.8958 152.125 86.7708 152.125 79.5625V33.75C152.125 28.9167 152.438 24.5 153.062 20.5C153.688 16.4583 154.792 12.9792 156.375 10.0625C158 7.10417 160.25 4.83333 163.125 3.25C166 1.625 169.688 0.8125 174.188 0.8125C178.479 0.8125 181.979 1.58333 184.688 3.125C187.396 4.625 189.5 6.79167 191 9.625C192.5 12.4167 193.521 15.75 194.062 19.625C194.646 23.4583 194.938 27.7083 194.938 32.375V44.5625H182.25V32.3125C182.25 25.4792 181.75 20.375 180.75 17C179.792 13.5833 177.604 11.875 174.188 11.875C170.562 11.875 168.125 13.625 166.875 17.125C165.667 20.5833 165.062 25.625 165.062 32.25V79.875C165.062 85.2083 165.292 89.5417 165.75 92.875C166.208 96.1667 167.062 98.5625 168.312 100.062C169.604 101.562 171.438 102.312 173.812 102.312C177.271 102.312 179.542 100.562 180.625 97.0625C181.708 93.5625 182.25 87.8125 182.25 79.8125V67.625H195.062V79.6875C195.062 87.0208 194.417 93.1875 193.125 98.1875C191.875 103.188 189.708 106.958 186.625 109.5C183.542 112.042 179.25 113.312 173.75 113.312Z" fill="#070707"/>
<path d="M208.438 112L213.812 72.875H204.125V67.1875H214.5L217.688 44.5625H206.375V38.875H218.5L223.688 2H232.312L227.062 38.875H237.5L242.812 2H251.438L246.312 38.875H255.688V44.5625H245.5L242.312 67.1875H253.438V72.875H241.625L236.188 112H227.562L232.875 72.875H222.375L217.062 112H208.438ZM223 67.25H233.688L236.812 44.8125H226.25L223 67.25Z" fill="#857F74"/>
</svg>
